<?xml version="1.0" encoding="UTF-8"?>
<svg width="1440" height="400" viewBox="0 0 1440 400" xmlns="http://www.w3.org/2000/svg">
  <!-- 가장 먼 산맥 (뾰족하게) -->
  <path d="M0,280 L120,220 L180,260 L260,200 L340,250 L420,180 L500,240 L600,170 L700,230 L800,180 L900,250 L1000,200 L1100,260 L1200,210 L1300,240 L1440,180 V400 H0 Z" fill="#b3c6db"/>
  <!-- 두 번째 산맥 (뾰족하게) -->
  <path d="M0,320 L100,270 L180,310 L260,250 L340,300 L420,230 L500,290 L600,220 L700,280 L800,230 L900,300 L1000,250 L1100,310 L1200,260 L1300,290 L1440,240 V400 H0 Z" fill="#7a99b8"/>
  <!-- 세 번째 산맥 (뾰족하게) -->
  <path d="M0,360 L80,320 L160,350 L240,300 L320,340 L400,290 L480,330 L560,280 L640,320 L720,270 L800,310 L880,260 L960,300 L1040,250 L1120,290 L1200,240 L1280,280 L1360,250 L1440,320 V400 H0 Z" fill="#4a6780"/>
  <!-- 네 번째 산맥(가장 가까움, 뾰족하게) -->
  <path d="M0,400 L60,370 L120,400 L180,380 L240,400 L300,390 L360,400 L420,380 L480,400 L540,390 L600,400 L660,380 L720,400 L780,390 L840,400 L900,380 L960,400 L1020,390 L1080,400 L1140,380 L1200,400 L1260,390 L1320,400 L1380,380 L1440,400 V400 H0 Z" fill="#253447"/>
  <!-- 침엽수(나무) 실루엣, 더 뾰족하게 -->
  <path d="M40,400 L55,340 L70,400 L85,360 L100,400 L115,350 L130,400 L145,370 L160,400 L175,360 L190,400 L205,350 L220,400 L235,370 L250,400 L265,360 L280,400 L295,350 L310,400 L325,370 L340,400 L355,360 L370,400 L385,350 L400,400 L415,370 L430,400 L445,360 L460,400 L475,350 L490,400 L505,370 L520,400 L535,360 L550,400 L565,350 L580,400 L595,370 L610,400 L625,360 L640,400 L655,350 L670,400 L685,370 L700,400 L715,360 L730,400 L745,350 L760,400 L775,370 L790,400 L805,360 L820,400 L835,350 L850,400 L865,370 L880,400 L895,360 L910,400 L925,350 L940,400 L955,370 L970,400 L985,360 L1000,400 L1015,350 L1030,400 L1045,370 L1060,400 L1075,360 L1090,400 L1105,350 L1120,400 L1135,370 L1150,400 L1165,360 L1180,400 L1195,350 L1210,400 L1225,370 L1240,400 L1255,360 L1270,400 L1285,350 L1300,400 L1315,370 L1330,400 L1345,360 L1360,400 L1375,350 L1390,400 L1405,370 L1420,400 L1435,360 L1440,400 V400 H0 Z" fill="#111"/>
</svg> 